<mxfile host="app.diagrams.net" agent="Mozilla/5.0 (Windows NT 10.0; Win64; x64) AppleWebKit/537.36 (KHTML, like Gecko) Chrome/130.0.0.0 Safari/537.36 Edg/130.0.0.0" version="24.8.2">
  <diagram id="C5RBs43oDa-KdzZeNtuy" name="Page-1">
    <mxGraphModel dx="4959" dy="2302" grid="1" gridSize="10" guides="1" tooltips="1" connect="1" arrows="1" fold="1" page="1" pageScale="1" pageWidth="827" pageHeight="1169" math="0" shadow="0">
      <root>
        <mxCell id="WIyWlLk6GJQsqaUBKTNV-0" />
        <mxCell id="WIyWlLk6GJQsqaUBKTNV-1" parent="WIyWlLk6GJQsqaUBKTNV-0" />
        <mxCell id="7opBsSrI0VMIfHAi1tyP-0" value="Email Sources&lt;div&gt;&lt;br&gt;&lt;/div&gt;&lt;div&gt;&lt;br&gt;&lt;/div&gt;&lt;div&gt;&lt;br&gt;&lt;/div&gt;" style="whiteSpace=wrap;html=1;fillColor=#bac8d3;strokeColor=#23445d;" vertex="1" parent="WIyWlLk6GJQsqaUBKTNV-1">
          <mxGeometry x="300" y="50" width="300" height="90" as="geometry" />
        </mxCell>
        <mxCell id="7opBsSrI0VMIfHAi1tyP-1" value="&lt;div&gt;Microsoft Graph API - emails endpoint&lt;/div&gt;" style="whiteSpace=wrap;html=1;fillColor=#d5e8d4;strokeColor=#82b366;" vertex="1" parent="WIyWlLk6GJQsqaUBKTNV-1">
          <mxGeometry x="330" y="90" width="250" height="40" as="geometry" />
        </mxCell>
        <mxCell id="7opBsSrI0VMIfHAi1tyP-2" value="&lt;div&gt;&lt;br&gt;&lt;/div&gt;&lt;div&gt;&lt;br&gt;&lt;/div&gt;&lt;div&gt;&lt;br&gt;&lt;/div&gt;" style="whiteSpace=wrap;html=1;fillColor=#bac8d3;strokeColor=#23445d;" vertex="1" parent="WIyWlLk6GJQsqaUBKTNV-1">
          <mxGeometry x="-40" y="220" width="1310" height="1560" as="geometry" />
        </mxCell>
        <mxCell id="7opBsSrI0VMIfHAi1tyP-3" value="Main Process" style="text;strokeColor=none;align=center;fillColor=none;html=1;verticalAlign=middle;whiteSpace=wrap;rounded=0;" vertex="1" parent="WIyWlLk6GJQsqaUBKTNV-1">
          <mxGeometry x="140" y="230" width="190" height="30" as="geometry" />
        </mxCell>
        <mxCell id="7opBsSrI0VMIfHAi1tyP-8" style="edgeStyle=orthogonalEdgeStyle;rounded=0;orthogonalLoop=1;jettySize=auto;html=1;" edge="1" parent="WIyWlLk6GJQsqaUBKTNV-1" source="7opBsSrI0VMIfHAi1tyP-4" target="7opBsSrI0VMIfHAi1tyP-5">
          <mxGeometry relative="1" as="geometry" />
        </mxCell>
        <mxCell id="7opBsSrI0VMIfHAi1tyP-4" value="&lt;div&gt;Fetch unread emails&amp;nbsp;&lt;/div&gt;&lt;div&gt;10 emails every 30 seconds&lt;/div&gt;" style="whiteSpace=wrap;html=1;fillColor=#dae8fc;strokeColor=#6c8ebf;" vertex="1" parent="WIyWlLk6GJQsqaUBKTNV-1">
          <mxGeometry x="325" y="280" width="250" height="40" as="geometry" />
        </mxCell>
        <mxCell id="7opBsSrI0VMIfHAi1tyP-13" style="edgeStyle=orthogonalEdgeStyle;rounded=0;orthogonalLoop=1;jettySize=auto;html=1;" edge="1" parent="WIyWlLk6GJQsqaUBKTNV-1" source="7opBsSrI0VMIfHAi1tyP-5" target="7opBsSrI0VMIfHAi1tyP-9">
          <mxGeometry relative="1" as="geometry" />
        </mxCell>
        <mxCell id="7opBsSrI0VMIfHAi1tyP-5" value="Process email batch asynchronously" style="whiteSpace=wrap;html=1;fillColor=#dae8fc;strokeColor=#6c8ebf;" vertex="1" parent="WIyWlLk6GJQsqaUBKTNV-1">
          <mxGeometry x="325" y="350" width="250" height="40" as="geometry" />
        </mxCell>
        <mxCell id="7opBsSrI0VMIfHAi1tyP-7" style="edgeStyle=orthogonalEdgeStyle;rounded=0;orthogonalLoop=1;jettySize=auto;html=1;entryX=0.5;entryY=0;entryDx=0;entryDy=0;" edge="1" parent="WIyWlLk6GJQsqaUBKTNV-1" source="7opBsSrI0VMIfHAi1tyP-0" target="7opBsSrI0VMIfHAi1tyP-4">
          <mxGeometry relative="1" as="geometry" />
        </mxCell>
        <mxCell id="7opBsSrI0VMIfHAi1tyP-12" style="edgeStyle=orthogonalEdgeStyle;rounded=0;orthogonalLoop=1;jettySize=auto;html=1;exitX=-0.003;exitY=0.519;exitDx=0;exitDy=0;exitPerimeter=0;" edge="1" parent="WIyWlLk6GJQsqaUBKTNV-1" source="7opBsSrI0VMIfHAi1tyP-9" target="7opBsSrI0VMIfHAi1tyP-10">
          <mxGeometry relative="1" as="geometry" />
        </mxCell>
        <mxCell id="7opBsSrI0VMIfHAi1tyP-50" style="edgeStyle=orthogonalEdgeStyle;rounded=0;orthogonalLoop=1;jettySize=auto;html=1;entryX=0;entryY=0.5;entryDx=0;entryDy=0;jumpStyle=gap;" edge="1" parent="WIyWlLk6GJQsqaUBKTNV-1" source="7opBsSrI0VMIfHAi1tyP-9" target="7opBsSrI0VMIfHAi1tyP-41">
          <mxGeometry relative="1" as="geometry" />
        </mxCell>
        <mxCell id="7opBsSrI0VMIfHAi1tyP-54" style="edgeStyle=orthogonalEdgeStyle;rounded=0;orthogonalLoop=1;jettySize=auto;html=1;entryX=0.75;entryY=0;entryDx=0;entryDy=0;dashed=1;dashPattern=12 12;" edge="1" parent="WIyWlLk6GJQsqaUBKTNV-1" source="7opBsSrI0VMIfHAi1tyP-9" target="7opBsSrI0VMIfHAi1tyP-51">
          <mxGeometry relative="1" as="geometry">
            <Array as="points">
              <mxPoint x="1140" y="555" />
              <mxPoint x="1140" y="1860" />
              <mxPoint x="1037" y="1860" />
            </Array>
          </mxGeometry>
        </mxCell>
        <mxCell id="7opBsSrI0VMIfHAi1tyP-56" value="CHECK" style="edgeLabel;html=1;align=center;verticalAlign=middle;resizable=0;points=[];" vertex="1" connectable="0" parent="7opBsSrI0VMIfHAi1tyP-54">
          <mxGeometry x="0.1152" y="-3" relative="1" as="geometry">
            <mxPoint y="-1" as="offset" />
          </mxGeometry>
        </mxCell>
        <mxCell id="7opBsSrI0VMIfHAi1tyP-9" value="Email already processed?" style="html=1;whiteSpace=wrap;aspect=fixed;shape=isoRectangle;fillColor=#e1d5e7;strokeColor=#9673a6;" vertex="1" parent="WIyWlLk6GJQsqaUBKTNV-1">
          <mxGeometry x="291.66999999999996" y="460" width="316.66" height="190" as="geometry" />
        </mxCell>
        <mxCell id="7opBsSrI0VMIfHAi1tyP-17" style="edgeStyle=orthogonalEdgeStyle;rounded=0;orthogonalLoop=1;jettySize=auto;html=1;" edge="1" parent="WIyWlLk6GJQsqaUBKTNV-1" source="7opBsSrI0VMIfHAi1tyP-10" target="7opBsSrI0VMIfHAi1tyP-15">
          <mxGeometry relative="1" as="geometry" />
        </mxCell>
        <mxCell id="7opBsSrI0VMIfHAi1tyP-10" value="&lt;div&gt;Extract Email Content&lt;/div&gt;" style="whiteSpace=wrap;html=1;fillColor=#dae8fc;strokeColor=#6c8ebf;" vertex="1" parent="WIyWlLk6GJQsqaUBKTNV-1">
          <mxGeometry x="80" y="670" width="250" height="40" as="geometry" />
        </mxCell>
        <mxCell id="7opBsSrI0VMIfHAi1tyP-11" value="&lt;span style=&quot;background-color: rgb(255, 255, 255);&quot;&gt;Emai&lt;/span&gt;" style="text;strokeColor=none;align=center;fillColor=none;html=1;verticalAlign=middle;whiteSpace=wrap;rounded=0;" vertex="1" parent="WIyWlLk6GJQsqaUBKTNV-1">
          <mxGeometry x="450" y="410" width="60" height="30" as="geometry" />
        </mxCell>
        <mxCell id="7opBsSrI0VMIfHAi1tyP-14" value="&lt;span style=&quot;background-color: rgb(255, 255, 255);&quot;&gt;NO&lt;/span&gt;" style="text;strokeColor=none;align=center;fillColor=none;html=1;verticalAlign=middle;whiteSpace=wrap;rounded=0;" vertex="1" parent="WIyWlLk6GJQsqaUBKTNV-1">
          <mxGeometry x="200" y="520" width="60" height="30" as="geometry" />
        </mxCell>
        <mxCell id="7opBsSrI0VMIfHAi1tyP-22" style="edgeStyle=orthogonalEdgeStyle;rounded=0;orthogonalLoop=1;jettySize=auto;html=1;" edge="1" parent="WIyWlLk6GJQsqaUBKTNV-1" source="7opBsSrI0VMIfHAi1tyP-15" target="7opBsSrI0VMIfHAi1tyP-18">
          <mxGeometry relative="1" as="geometry" />
        </mxCell>
        <mxCell id="7opBsSrI0VMIfHAi1tyP-15" value="&lt;div&gt;Extract Email Content&lt;/div&gt;" style="whiteSpace=wrap;html=1;fillColor=#dae8fc;strokeColor=#6c8ebf;" vertex="1" parent="WIyWlLk6GJQsqaUBKTNV-1">
          <mxGeometry x="80" y="760" width="250" height="40" as="geometry" />
        </mxCell>
        <mxCell id="7opBsSrI0VMIfHAi1tyP-16" value="&lt;span style=&quot;background-color: rgb(255, 255, 255);&quot;&gt;Email details&lt;/span&gt;" style="text;strokeColor=none;align=center;fillColor=none;html=1;verticalAlign=middle;whiteSpace=wrap;rounded=0;" vertex="1" parent="WIyWlLk6GJQsqaUBKTNV-1">
          <mxGeometry x="220" y="720" width="60" height="30" as="geometry" />
        </mxCell>
        <mxCell id="7opBsSrI0VMIfHAi1tyP-18" value="&lt;div&gt;AzureOpenAI Services&lt;/div&gt;&lt;div&gt;&lt;br&gt;&lt;/div&gt;&lt;div&gt;&lt;br&gt;&lt;/div&gt;&lt;div&gt;&lt;br&gt;&lt;/div&gt;&lt;div&gt;&lt;br&gt;&lt;/div&gt;" style="whiteSpace=wrap;html=1;fillColor=#bac8d3;strokeColor=#23445d;" vertex="1" parent="WIyWlLk6GJQsqaUBKTNV-1">
          <mxGeometry x="-395" y="728.75" width="310" height="102.5" as="geometry" />
        </mxCell>
        <mxCell id="7opBsSrI0VMIfHAi1tyP-19" value="&lt;div&gt;AzureOpenAI LLM model (GPT)&lt;/div&gt;" style="whiteSpace=wrap;html=1;fillColor=#d5e8d4;strokeColor=#82b366;" vertex="1" parent="WIyWlLk6GJQsqaUBKTNV-1">
          <mxGeometry x="-365" y="777.5" width="250" height="40" as="geometry" />
        </mxCell>
        <mxCell id="7opBsSrI0VMIfHAi1tyP-21" value="&lt;span style=&quot;background-color: rgb(255, 255, 255);&quot;&gt;API Call&lt;/span&gt;" style="text;strokeColor=none;align=center;fillColor=none;html=1;verticalAlign=middle;whiteSpace=wrap;rounded=0;" vertex="1" parent="WIyWlLk6GJQsqaUBKTNV-1">
          <mxGeometry x="-30" y="727.5" width="60" height="30" as="geometry" />
        </mxCell>
        <mxCell id="7opBsSrI0VMIfHAi1tyP-28" style="edgeStyle=orthogonalEdgeStyle;rounded=0;orthogonalLoop=1;jettySize=auto;html=1;exitX=0.987;exitY=0.515;exitDx=0;exitDy=0;exitPerimeter=0;" edge="1" parent="WIyWlLk6GJQsqaUBKTNV-1" source="7opBsSrI0VMIfHAi1tyP-23" target="7opBsSrI0VMIfHAi1tyP-27">
          <mxGeometry relative="1" as="geometry">
            <mxPoint x="613" y="955" as="sourcePoint" />
          </mxGeometry>
        </mxCell>
        <mxCell id="7opBsSrI0VMIfHAi1tyP-32" style="edgeStyle=orthogonalEdgeStyle;rounded=0;orthogonalLoop=1;jettySize=auto;html=1;entryX=0.5;entryY=0;entryDx=0;entryDy=0;exitX=0.5;exitY=0.978;exitDx=0;exitDy=0;exitPerimeter=0;" edge="1" parent="WIyWlLk6GJQsqaUBKTNV-1" source="7opBsSrI0VMIfHAi1tyP-23" target="7opBsSrI0VMIfHAi1tyP-31">
          <mxGeometry relative="1" as="geometry" />
        </mxCell>
        <mxCell id="7opBsSrI0VMIfHAi1tyP-23" value="Classification Successful?" style="html=1;whiteSpace=wrap;aspect=fixed;shape=isoRectangle;fillColor=#e1d5e7;strokeColor=#9673a6;" vertex="1" parent="WIyWlLk6GJQsqaUBKTNV-1">
          <mxGeometry x="46.66999999999997" y="860" width="316.66" height="190" as="geometry" />
        </mxCell>
        <mxCell id="7opBsSrI0VMIfHAi1tyP-25" style="edgeStyle=orthogonalEdgeStyle;rounded=0;orthogonalLoop=1;jettySize=auto;html=1;entryX=0.019;entryY=0.495;entryDx=0;entryDy=0;entryPerimeter=0;" edge="1" parent="WIyWlLk6GJQsqaUBKTNV-1" target="7opBsSrI0VMIfHAi1tyP-23">
          <mxGeometry relative="1" as="geometry">
            <mxPoint x="-240" y="840" as="sourcePoint" />
            <mxPoint x="46.66323999999992" y="945.3800000000001" as="targetPoint" />
            <Array as="points">
              <mxPoint x="-240" y="830" />
              <mxPoint x="-239" y="830" />
              <mxPoint x="-239" y="954" />
            </Array>
          </mxGeometry>
        </mxCell>
        <mxCell id="7opBsSrI0VMIfHAi1tyP-26" value="&lt;span style=&quot;background-color: rgb(255, 255, 255);&quot;&gt;LLM classification&lt;/span&gt;" style="text;strokeColor=none;align=center;fillColor=none;html=1;verticalAlign=middle;whiteSpace=wrap;rounded=0;" vertex="1" parent="WIyWlLk6GJQsqaUBKTNV-1">
          <mxGeometry x="-170" y="910" width="60" height="30" as="geometry" />
        </mxCell>
        <mxCell id="7opBsSrI0VMIfHAi1tyP-38" style="edgeStyle=orthogonalEdgeStyle;rounded=0;orthogonalLoop=1;jettySize=auto;html=1;" edge="1" parent="WIyWlLk6GJQsqaUBKTNV-1" source="7opBsSrI0VMIfHAi1tyP-27" target="7opBsSrI0VMIfHAi1tyP-37">
          <mxGeometry relative="1" as="geometry" />
        </mxCell>
        <mxCell id="7opBsSrI0VMIfHAi1tyP-27" value="&lt;div&gt;Default Routing&lt;/div&gt;" style="whiteSpace=wrap;html=1;fillColor=#dae8fc;strokeColor=#6c8ebf;" vertex="1" parent="WIyWlLk6GJQsqaUBKTNV-1">
          <mxGeometry x="730" y="938" width="250" height="40" as="geometry" />
        </mxCell>
        <mxCell id="7opBsSrI0VMIfHAi1tyP-30" value="&lt;span style=&quot;background-color: rgb(255, 255, 255);&quot;&gt;NO&lt;/span&gt;" style="text;strokeColor=none;align=center;fillColor=none;html=1;verticalAlign=middle;whiteSpace=wrap;rounded=0;" vertex="1" parent="WIyWlLk6GJQsqaUBKTNV-1">
          <mxGeometry x="634" y="920" width="60" height="30" as="geometry" />
        </mxCell>
        <mxCell id="7opBsSrI0VMIfHAi1tyP-31" value="&lt;div&gt;Email Forwarding&lt;/div&gt;&lt;div&gt;&lt;br&gt;&lt;/div&gt;&lt;div&gt;&lt;br&gt;&lt;/div&gt;&lt;div&gt;&lt;br&gt;&lt;/div&gt;&lt;div&gt;&lt;br&gt;&lt;/div&gt;&lt;div&gt;&lt;br&gt;&lt;/div&gt;&lt;div&gt;&lt;br&gt;&lt;/div&gt;&lt;div&gt;&lt;br&gt;&lt;/div&gt;&lt;div&gt;&lt;br&gt;&lt;/div&gt;&lt;div&gt;&lt;br&gt;&lt;/div&gt;&lt;div&gt;&lt;br&gt;&lt;/div&gt;&lt;div&gt;&lt;br&gt;&lt;/div&gt;" style="whiteSpace=wrap;html=1;fillColor=#bac8d3;strokeColor=#23445d;" vertex="1" parent="WIyWlLk6GJQsqaUBKTNV-1">
          <mxGeometry x="-413" y="1120" width="310" height="190" as="geometry" />
        </mxCell>
        <mxCell id="7opBsSrI0VMIfHAi1tyP-33" value="&lt;span style=&quot;background-color: rgb(255, 255, 255);&quot;&gt;YES&lt;/span&gt;" style="text;strokeColor=none;align=center;fillColor=none;html=1;verticalAlign=middle;whiteSpace=wrap;rounded=0;" vertex="1" parent="WIyWlLk6GJQsqaUBKTNV-1">
          <mxGeometry y="1010" width="60" height="30" as="geometry" />
        </mxCell>
        <mxCell id="7opBsSrI0VMIfHAi1tyP-40" style="edgeStyle=orthogonalEdgeStyle;rounded=0;orthogonalLoop=1;jettySize=auto;html=1;" edge="1" parent="WIyWlLk6GJQsqaUBKTNV-1" source="7opBsSrI0VMIfHAi1tyP-34" target="7opBsSrI0VMIfHAi1tyP-37">
          <mxGeometry relative="1" as="geometry" />
        </mxCell>
        <mxCell id="7opBsSrI0VMIfHAi1tyP-34" value="&lt;div&gt;Forward Email to mapped address&lt;/div&gt;" style="whiteSpace=wrap;html=1;fillColor=#dae8fc;strokeColor=#6c8ebf;" vertex="1" parent="WIyWlLk6GJQsqaUBKTNV-1">
          <mxGeometry x="-383" y="1151.25" width="250" height="40" as="geometry" />
        </mxCell>
        <mxCell id="7opBsSrI0VMIfHAi1tyP-35" value="Include original CC email addresses" style="ellipse;whiteSpace=wrap;html=1;" vertex="1" parent="WIyWlLk6GJQsqaUBKTNV-1">
          <mxGeometry x="-395" y="1210" width="120" height="80" as="geometry" />
        </mxCell>
        <mxCell id="7opBsSrI0VMIfHAi1tyP-36" value="Set REPLY TO address to the original sender" style="ellipse;whiteSpace=wrap;html=1;" vertex="1" parent="WIyWlLk6GJQsqaUBKTNV-1">
          <mxGeometry x="-253" y="1210" width="120" height="80" as="geometry" />
        </mxCell>
        <mxCell id="7opBsSrI0VMIfHAi1tyP-43" style="edgeStyle=orthogonalEdgeStyle;rounded=0;orthogonalLoop=1;jettySize=auto;html=1;" edge="1" parent="WIyWlLk6GJQsqaUBKTNV-1" source="7opBsSrI0VMIfHAi1tyP-37" target="7opBsSrI0VMIfHAi1tyP-41">
          <mxGeometry relative="1" as="geometry" />
        </mxCell>
        <mxCell id="7opBsSrI0VMIfHAi1tyP-58" style="edgeStyle=orthogonalEdgeStyle;rounded=0;orthogonalLoop=1;jettySize=auto;html=1;entryX=0.75;entryY=0;entryDx=0;entryDy=0;exitX=0.993;exitY=0.509;exitDx=0;exitDy=0;exitPerimeter=0;" edge="1" parent="WIyWlLk6GJQsqaUBKTNV-1" source="7opBsSrI0VMIfHAi1tyP-37" target="7opBsSrI0VMIfHAi1tyP-57">
          <mxGeometry relative="1" as="geometry">
            <Array as="points">
              <mxPoint x="1058" y="1173" />
              <mxPoint x="1058" y="1403" />
            </Array>
          </mxGeometry>
        </mxCell>
        <mxCell id="7opBsSrI0VMIfHAi1tyP-37" value="Emal forwarding successful?" style="html=1;whiteSpace=wrap;aspect=fixed;shape=isoRectangle;fillColor=#e1d5e7;strokeColor=#9673a6;" vertex="1" parent="WIyWlLk6GJQsqaUBKTNV-1">
          <mxGeometry x="696.67" y="1076.25" width="316.66" height="190" as="geometry" />
        </mxCell>
        <mxCell id="7opBsSrI0VMIfHAi1tyP-39" value="&lt;span style=&quot;background-color: rgb(255, 255, 255);&quot;&gt;Forward to the original email address that the customer used&lt;/span&gt;" style="text;strokeColor=none;align=center;fillColor=none;html=1;verticalAlign=middle;whiteSpace=wrap;rounded=0;" vertex="1" parent="WIyWlLk6GJQsqaUBKTNV-1">
          <mxGeometry x="870" y="1000" width="200" height="30" as="geometry" />
        </mxCell>
        <mxCell id="7opBsSrI0VMIfHAi1tyP-46" style="edgeStyle=orthogonalEdgeStyle;rounded=0;orthogonalLoop=1;jettySize=auto;html=1;entryX=0.5;entryY=0;entryDx=0;entryDy=0;" edge="1" parent="WIyWlLk6GJQsqaUBKTNV-1" source="7opBsSrI0VMIfHAi1tyP-41" target="7opBsSrI0VMIfHAi1tyP-45">
          <mxGeometry relative="1" as="geometry" />
        </mxCell>
        <mxCell id="7opBsSrI0VMIfHAi1tyP-60" style="edgeStyle=orthogonalEdgeStyle;rounded=0;orthogonalLoop=1;jettySize=auto;html=1;" edge="1" parent="WIyWlLk6GJQsqaUBKTNV-1" source="7opBsSrI0VMIfHAi1tyP-41" target="7opBsSrI0VMIfHAi1tyP-57">
          <mxGeometry relative="1" as="geometry" />
        </mxCell>
        <mxCell id="7opBsSrI0VMIfHAi1tyP-41" value="&lt;div&gt;Mark email as read&lt;/div&gt;" style="whiteSpace=wrap;html=1;fillColor=#dae8fc;strokeColor=#6c8ebf;" vertex="1" parent="WIyWlLk6GJQsqaUBKTNV-1">
          <mxGeometry x="560" y="1410" width="250" height="40" as="geometry" />
        </mxCell>
        <mxCell id="7opBsSrI0VMIfHAi1tyP-44" value="&lt;span style=&quot;background-color: rgb(255, 255, 255);&quot;&gt;SUCCESS&lt;/span&gt;" style="text;strokeColor=none;align=center;fillColor=none;html=1;verticalAlign=middle;whiteSpace=wrap;rounded=0;" vertex="1" parent="WIyWlLk6GJQsqaUBKTNV-1">
          <mxGeometry x="730" y="1300" width="60" height="30" as="geometry" />
        </mxCell>
        <mxCell id="7opBsSrI0VMIfHAi1tyP-62" style="edgeStyle=orthogonalEdgeStyle;rounded=0;orthogonalLoop=1;jettySize=auto;html=1;entryX=0.25;entryY=0;entryDx=0;entryDy=0;dashed=1;dashPattern=12 12;" edge="1" parent="WIyWlLk6GJQsqaUBKTNV-1" source="7opBsSrI0VMIfHAi1tyP-45" target="7opBsSrI0VMIfHAi1tyP-51">
          <mxGeometry relative="1" as="geometry" />
        </mxCell>
        <mxCell id="7opBsSrI0VMIfHAi1tyP-64" value="Log Entry" style="edgeLabel;html=1;align=center;verticalAlign=middle;resizable=0;points=[];" vertex="1" connectable="0" parent="7opBsSrI0VMIfHAi1tyP-62">
          <mxGeometry x="-0.6382" relative="1" as="geometry">
            <mxPoint as="offset" />
          </mxGeometry>
        </mxCell>
        <mxCell id="7opBsSrI0VMIfHAi1tyP-45" value="&lt;div&gt;Log success&lt;/div&gt;" style="whiteSpace=wrap;html=1;fillColor=#dae8fc;strokeColor=#6c8ebf;" vertex="1" parent="WIyWlLk6GJQsqaUBKTNV-1">
          <mxGeometry x="560" y="1540" width="250" height="40" as="geometry" />
        </mxCell>
        <mxCell id="7opBsSrI0VMIfHAi1tyP-47" value="&lt;span style=&quot;background-color: rgb(255, 255, 255);&quot;&gt;SUCCESS&lt;/span&gt;" style="text;strokeColor=none;align=center;fillColor=none;html=1;verticalAlign=middle;whiteSpace=wrap;rounded=0;" vertex="1" parent="WIyWlLk6GJQsqaUBKTNV-1">
          <mxGeometry x="694" y="1490" width="60" height="30" as="geometry" />
        </mxCell>
        <mxCell id="7opBsSrI0VMIfHAi1tyP-51" value="SQL Data base&lt;div&gt;&lt;br&gt;&lt;/div&gt;&lt;div&gt;DEV SERVER: GITAGPSQLDEV2.isservices.co.za&lt;/div&gt;&lt;div&gt;DEV DB: APEXDEV&lt;/div&gt;&lt;div&gt;SQL USER: svc_apex&lt;/div&gt;&lt;div&gt;&lt;br&gt;&lt;/div&gt;&lt;div&gt;PROD SERVER: GITAGPNSQL01.isservices.co.za\SQL01&lt;/div&gt;&lt;div&gt;PROD DB: APEX&lt;/div&gt;&lt;div&gt;SQL USER: sv_apex&lt;/div&gt;&lt;div&gt;&lt;br&gt;&lt;/div&gt;&lt;div&gt;&lt;br&gt;&lt;/div&gt;&lt;div&gt;&lt;br&gt;&lt;/div&gt;&lt;div&gt;&lt;br&gt;&lt;/div&gt;&lt;div&gt;&lt;br&gt;&lt;/div&gt;&lt;div&gt;&lt;br&gt;&lt;/div&gt;&lt;div&gt;&lt;br&gt;&lt;/div&gt;&lt;div&gt;&lt;br&gt;&lt;/div&gt;" style="whiteSpace=wrap;html=1;fillColor=#bac8d3;strokeColor=#23445d;" vertex="1" parent="WIyWlLk6GJQsqaUBKTNV-1">
          <mxGeometry x="650" y="1920" width="516" height="270" as="geometry" />
        </mxCell>
        <mxCell id="7opBsSrI0VMIfHAi1tyP-53" value="" style="image;html=1;image=img/lib/clip_art/computers/Database_128x128.png" vertex="1" parent="WIyWlLk6GJQsqaUBKTNV-1">
          <mxGeometry x="793" y="2080" width="230" height="80" as="geometry" />
        </mxCell>
        <mxCell id="7opBsSrI0VMIfHAi1tyP-57" value="&lt;div&gt;Log Failure&lt;/div&gt;" style="whiteSpace=wrap;html=1;fillColor=#dae8fc;strokeColor=#6c8ebf;" vertex="1" parent="WIyWlLk6GJQsqaUBKTNV-1">
          <mxGeometry x="870" y="1540" width="250" height="40" as="geometry" />
        </mxCell>
        <mxCell id="7opBsSrI0VMIfHAi1tyP-59" value="&lt;span style=&quot;background-color: rgb(255, 255, 255);&quot;&gt;FAILURE&lt;/span&gt;" style="text;strokeColor=none;align=center;fillColor=none;html=1;verticalAlign=middle;whiteSpace=wrap;rounded=0;" vertex="1" parent="WIyWlLk6GJQsqaUBKTNV-1">
          <mxGeometry x="990" y="1191.25" width="60" height="30" as="geometry" />
        </mxCell>
        <mxCell id="7opBsSrI0VMIfHAi1tyP-61" value="&lt;span style=&quot;background-color: rgb(255, 255, 255);&quot;&gt;FAILURE&lt;/span&gt;" style="text;strokeColor=none;align=center;fillColor=none;html=1;verticalAlign=middle;whiteSpace=wrap;rounded=0;" vertex="1" parent="WIyWlLk6GJQsqaUBKTNV-1">
          <mxGeometry x="820" y="1430" width="60" height="30" as="geometry" />
        </mxCell>
        <mxCell id="7opBsSrI0VMIfHAi1tyP-63" style="edgeStyle=orthogonalEdgeStyle;rounded=0;orthogonalLoop=1;jettySize=auto;html=1;entryX=0.483;entryY=0.009;entryDx=0;entryDy=0;dashed=1;dashPattern=12 12;exitX=0.5;exitY=1;exitDx=0;exitDy=0;entryPerimeter=0;" edge="1" parent="WIyWlLk6GJQsqaUBKTNV-1" source="7opBsSrI0VMIfHAi1tyP-57" target="7opBsSrI0VMIfHAi1tyP-51">
          <mxGeometry relative="1" as="geometry">
            <mxPoint x="695" y="1590" as="sourcePoint" />
            <mxPoint x="789" y="1930" as="targetPoint" />
          </mxGeometry>
        </mxCell>
        <mxCell id="7opBsSrI0VMIfHAi1tyP-65" value="Log Entry" style="edgeLabel;html=1;align=center;verticalAlign=middle;resizable=0;points=[];" vertex="1" connectable="0" parent="7opBsSrI0VMIfHAi1tyP-63">
          <mxGeometry x="-0.5657" y="2" relative="1" as="geometry">
            <mxPoint as="offset" />
          </mxGeometry>
        </mxCell>
      </root>
    </mxGraphModel>
  </diagram>
</mxfile>
